<svg width="93" height="16" viewBox="0 0 93 16" fill="none" xmlns="http://www.w3.org/2000/svg">
<path d="M0.247437 16H7.41265L9.47642 13.9362V9.48406L7.83004 7.83768L9.47642 6.19131V2.06377L7.41265 0H0.247437V16ZM3.9112 13.1014V9.29855H5.27932L5.81265 9.83189V12.5681L5.27932 13.1014H3.9112ZM3.9112 6.42319V2.89855H5.27932L5.81265 3.43188V5.88986L5.27932 6.42319H3.9112Z" fill="#353839"/>
<path d="M10.059 16H13.5141L13.8619 12.7536H16.1112L16.459 16H20.0996L17.804 0H12.3547L10.059 16ZM14.9982 2.34203L15.7866 9.76232H14.1866L14.9982 2.34203Z" fill="#353839"/>
<path d="M22.4409 16H26.1047V3.36232H28.7945V0H19.7511V3.36232H22.4409V16Z" fill="#353839"/>
<path d="M31.9518 16H35.6155V3.36232H38.3054V0H29.2619V3.36232H31.9518V16Z" fill="#353839"/>
<path d="M39.242 16H46.2217V12.7536H42.9058V0H39.242V16Z" fill="#353839"/>
<path d="M47.3715 16H55.0701V12.7536H51.0353V9.43768H54.6063V6.19131H51.0353V3.24638H55.0237V0H47.3715V16Z" fill="#353839"/>
<path d="M58.2376 16H63.2695L65.3333 13.9362V8.02319L63.6174 6.30725H60.3246L59.9072 5.88986V3.54783L60.4405 3.01449H61.113L61.6463 3.54783V5.12464H65.3101V2.06377L63.2463 0H58.3072L56.2434 2.06377V7.90725L57.9594 9.62319H61.2521L61.6695 10.0406V12.4522L61.1362 12.9855H60.371L59.8376 12.4522V10.8754H56.1739V13.9362L58.2376 16Z" fill="#353839"/>
<path d="M66.6876 16H70.3514V10.087H72.392V16H76.0558V0H72.392V6.4H70.3514V0H66.6876V16Z" fill="#353839"/>
<path d="M81.5661 16V0H77.9023V16H81.5661Z" fill="#353839"/>
<path d="M83.4222 16H87.086V10.5043H90.5643L92.628 8.44058V2.06377L90.5643 0H83.4222V16ZM87.086 7.72174V2.78261H88.4309L88.9643 3.31594V7.18841L88.4309 7.72174H87.086Z" fill="#353839"/>
</svg>
