<svg width="32" height="160" viewBox="0 0 32 160" fill="none" xmlns="http://www.w3.org/2000/svg">
<g clip-path="url(#clip0_1_70)">
<path d="M2 4C2 1.79086 3.79086 0 6 0H26C28.2091 0 30 1.79086 30 4V32H2V4Z" fill="#D1D2DE"/>
<circle cx="16" cy="16" r="6" fill="black" fill-opacity="0.1"/>
</g>
<g clip-path="url(#clip1_1_70)">
<path d="M2 32H30V64H2V32Z" fill="#D1D2DE"/>
<circle cx="16" cy="48" r="6" fill="black" fill-opacity="0.1"/>
</g>
<g clip-path="url(#clip2_1_70)">
<path d="M2 64H30V96H2V64Z" fill="#D1D2DE"/>
<circle cx="16" cy="80" r="6" fill="black" fill-opacity="0.1"/>
</g>
<g clip-path="url(#clip3_1_70)">
<path d="M2 96H30V128H2V96Z" fill="#D1D2DE"/>
<circle cx="16" cy="112" r="6" fill="black" fill-opacity="0.1"/>
</g>
<g clip-path="url(#clip4_1_70)">
<path d="M2 128H30V156C30 158.209 28.2091 160 26 160H6C3.79086 160 2 158.209 2 156V128Z" fill="#D1D2DE"/>
<circle cx="16" cy="144" r="6" fill="black" fill-opacity="0.1"/>
</g>
<defs>
<clipPath id="clip0_1_70">
<rect width="32" height="32" fill="white"/>
</clipPath>
<clipPath id="clip1_1_70">
<rect width="32" height="32" fill="white" transform="translate(0 32)"/>
</clipPath>
<clipPath id="clip2_1_70">
<rect width="32" height="32" fill="white" transform="translate(0 64)"/>
</clipPath>
<clipPath id="clip3_1_70">
<rect width="32" height="32" fill="white" transform="translate(0 96)"/>
</clipPath>
<clipPath id="clip4_1_70">
<rect width="32" height="32" fill="white" transform="translate(0 128)"/>
</clipPath>
</defs>
</svg>
