<svg width="32" height="160" viewBox="0 0 32 160" fill="none" xmlns="http://www.w3.org/2000/svg">
<g clip-path="url(#clip0_424_2074)">
<path d="M2.00003 4C2.00003 1.79086 3.79089 0 6.00003 0H26C28.2092 0 30 1.79086 30 4V32H2.00003V4Z" fill="#D1D2DE"/>
<circle cx="16" cy="16" r="6" fill="black" fill-opacity="0.1"/>
</g>
<g clip-path="url(#clip1_424_2074)">
<path d="M2.00003 32H30V64H2.00003V32Z" fill="#D1D2DE"/>
<circle cx="16" cy="48" r="6" fill="black" fill-opacity="0.1"/>
</g>
<g clip-path="url(#clip2_424_2074)">
<path d="M2.00003 64H30V96H2.00003V64Z" fill="#D1D2DE"/>
<circle cx="16" cy="80" r="6" fill="black" fill-opacity="0.1"/>
</g>
<g clip-path="url(#clip3_424_2074)">
<path d="M2.00003 96H30V128H2.00003V96Z" fill="#D1D2DE"/>
<circle cx="16" cy="112" r="6" fill="black" fill-opacity="0.1"/>
</g>
<g clip-path="url(#clip4_424_2074)">
<path d="M2.00003 128H30V156C30 158.209 28.2092 160 26 160H6.00003C3.79089 160 2.00003 158.209 2.00003 156V128Z" fill="#D1D2DE"/>
<circle cx="16" cy="144" r="6" fill="black" fill-opacity="0.1"/>
</g>
<defs>
<clipPath id="clip0_424_2074">
<rect width="32" height="32" fill="white"/>
</clipPath>
<clipPath id="clip1_424_2074">
<rect width="32" height="32" fill="white" transform="translate(3.05176e-05 32)"/>
</clipPath>
<clipPath id="clip2_424_2074">
<rect width="32" height="32" fill="white" transform="translate(3.05176e-05 64)"/>
</clipPath>
<clipPath id="clip3_424_2074">
<rect width="32" height="32" fill="white" transform="translate(3.05176e-05 96)"/>
</clipPath>
<clipPath id="clip4_424_2074">
<rect width="32" height="32" fill="white" transform="translate(3.05176e-05 128)"/>
</clipPath>
</defs>
</svg>
