<svg width="96" height="32" viewBox="0 0 96 32" fill="none" xmlns="http://www.w3.org/2000/svg">
<path d="M25.1175 30C15.6683 30 6.95898 24.8865 2.35443 16.6351C2.13413 16.2404 2.13413 15.7596 2.35443 15.3649C6.95899 7.1135 15.6683 2 25.1175 2L32 2L32 30L25.1175 30Z" fill="#D1D2DE"/>
<circle cx="16" cy="16" r="6" transform="rotate(-90 16 16)" fill="black" fill-opacity="0.1"/>
<g clip-path="url(#clip0_424_2120)">
<path d="M32 30L32 2L64 2L64 30L32 30Z" fill="#D1D2DE"/>
<circle cx="48" cy="16" r="6" transform="rotate(-90 48 16)" fill="black" fill-opacity="0.1"/>
</g>
<g clip-path="url(#clip1_424_2120)">
<path d="M64 30L64 2L81 2C88.732 2 95 8.26802 95 16C95 23.732 88.732 30 81 30L64 30Z" fill="#D1D2DE"/>
<circle cx="80" cy="16" r="6" transform="rotate(-90 80 16)" fill="black" fill-opacity="0.1"/>
</g>
<defs>
<clipPath id="clip0_424_2120">
<rect width="32" height="32" fill="white" transform="translate(32 32) rotate(-90)"/>
</clipPath>
<clipPath id="clip1_424_2120">
<rect width="32" height="32" fill="white" transform="translate(64 32) rotate(-90)"/>
</clipPath>
</defs>
</svg>
