<svg width="643" height="112" viewBox="0 0 643 112" fill="none" xmlns="http://www.w3.org/2000/svg">
<path d="M-3.05176e-05 111.746H49.8723L64.2368 97.3812V66.3926L52.7775 54.9333L64.2368 43.4739V14.7449L49.8723 0.380371H-3.05176e-05V111.746ZM25.501 91.5709V65.1014H35.0236L38.7358 68.8136V87.8587L35.0236 91.5709H25.501ZM25.501 45.0879V20.5553H35.0236L38.7358 24.2674V41.3757L35.0236 45.0879H25.501Z" fill="white"/>
<path d="M68.292 111.746H92.3404L94.7614 89.1499H110.417L112.838 111.746H138.178L122.199 0.380371H84.2705L68.292 111.746ZM102.67 16.6817L108.158 68.3294H97.021L102.67 16.6817Z" fill="white"/>
<path d="M154.474 111.746H179.975V23.7832H198.697V0.380371H135.752V23.7832H154.474V111.746Z" fill="white"/>
<path d="M220.673 111.746H246.174V23.7832H264.896V0.380371H201.951V23.7832H220.673V111.746Z" fill="white"/>
<path d="M271.415 111.746H319.996V89.1499H296.916V0.380371H271.415V111.746Z" fill="white"/>
<path d="M327.999 111.746H381.584V89.1499H353.501V66.0698H378.356V43.4739H353.501V22.9762H381.261V0.380371H327.999V111.746Z" fill="white"/>
<path d="M403.631 111.746H438.655L453.019 97.3812V56.2245L441.076 44.2809H418.157L415.252 41.3757V25.0744L418.964 21.3623H423.645L427.357 25.0744V36.0496H452.858V14.7449L438.494 0.380371H404.116L389.751 14.7449V55.4175L401.695 67.361H424.613L427.518 70.2662V87.0517L423.806 90.7639H418.48L414.768 87.0517V76.0765H389.267V97.3812L403.631 111.746Z" fill="white"/>
<path d="M462.446 111.746H487.947V70.589H502.15V111.746H527.651V0.380371H502.15V44.9265H487.947V0.380371H462.446V111.746Z" fill="white"/>
<path d="M566.005 111.746V0.380371H540.504V111.746H566.005Z" fill="white"/>
<path d="M578.925 111.746H604.426V73.4942H628.635L643 59.1296V14.7449L628.635 0.380371H578.925V111.746ZM604.426 54.1263V19.7483H613.787L617.499 23.4604V50.4141L613.787 54.1263H604.426Z" fill="white"/>
</svg>
