<svg width="160" height="32" viewBox="0 0 160 32" fill="none" xmlns="http://www.w3.org/2000/svg">
<g clip-path="url(#clip0_225_56870)">
<path d="M156 2C158.209 2 160 3.79086 160 6L160 26C160 28.2091 158.209 30 156 30L128 30L128 2L156 2Z" fill="#D1D2DE"/>
<circle cx="144" cy="16" r="6" transform="rotate(90 144 16)" fill="black" fill-opacity="0.1"/>
</g>
<g clip-path="url(#clip1_225_56870)">
<path d="M128 2L128 30L96 30L96 2L128 2Z" fill="#D1D2DE"/>
<circle cx="112" cy="16" r="6" transform="rotate(90 112 16)" fill="black" fill-opacity="0.1"/>
</g>
<g clip-path="url(#clip2_225_56870)">
<path d="M96 2L96 30L64 30L64 2L96 2Z" fill="#D1D2DE"/>
<circle cx="80" cy="16" r="6" transform="rotate(90 80 16)" fill="black" fill-opacity="0.1"/>
</g>
<g clip-path="url(#clip3_225_56870)">
<path d="M64 1.99999L64 30L32 30L32 1.99999L64 1.99999Z" fill="#D1D2DE"/>
<circle cx="48" cy="16" r="6" transform="rotate(90 48 16)" fill="black" fill-opacity="0.1"/>
</g>
<g clip-path="url(#clip4_225_56870)">
<path d="M32 1.99999L32 30L4 30C1.79086 30 -1.14564e-06 28.2091 -1.04907e-06 26L-1.74846e-07 5.99999C-7.8281e-08 3.79085 1.79086 1.99999 4 1.99999L32 1.99999Z" fill="#D1D2DE"/>
<circle cx="16" cy="16" r="6" transform="rotate(90 16 16)" fill="black" fill-opacity="0.1"/>
</g>
<defs>
<clipPath id="clip0_225_56870">
<rect width="32" height="32" fill="white" transform="translate(160) rotate(90)"/>
</clipPath>
<clipPath id="clip1_225_56870">
<rect width="32" height="32" fill="white" transform="translate(128) rotate(90)"/>
</clipPath>
<clipPath id="clip2_225_56870">
<rect width="32" height="32" fill="white" transform="translate(96) rotate(90)"/>
</clipPath>
<clipPath id="clip3_225_56870">
<rect width="32" height="32" fill="white" transform="translate(64 -7.62939e-06) rotate(90)"/>
</clipPath>
<clipPath id="clip4_225_56870">
<rect width="32" height="32" fill="white" transform="translate(32 -7.62939e-06) rotate(90)"/>
</clipPath>
</defs>
</svg>
