<svg width="64" height="32" viewBox="0 0 64 32" fill="none" xmlns="http://www.w3.org/2000/svg">
<path d="M38.8825 2C48.3317 2 57.041 7.1135 61.6456 15.3649C61.8659 15.7596 61.8659 16.2404 61.6456 16.6351C57.041 24.8865 48.3317 30 38.8825 30L32 30L32 2L38.8825 2Z" fill="#D1D2DE"/>
<circle cx="48" cy="16" r="6" transform="rotate(90 48 16)" fill="black" fill-opacity="0.1"/>
<g clip-path="url(#clip0_225_56868)">
<path d="M32 2L32 30L15 30C7.26801 30 0.999999 23.732 0.999999 16C1 8.26801 7.26801 2 15 2L32 2Z" fill="#D1D2DE"/>
<circle cx="16" cy="16" r="6" transform="rotate(90 16 16)" fill="black" fill-opacity="0.1"/>
</g>
<defs>
<clipPath id="clip0_225_56868">
<rect width="32" height="32" fill="white" transform="translate(32) rotate(90)"/>
</clipPath>
</defs>
</svg>
