<svg width="96" height="32" viewBox="0 0 96 32" fill="none" xmlns="http://www.w3.org/2000/svg">
<path d="M70.8825 2C80.3317 2 89.041 7.1135 93.6456 15.3649C93.8659 15.7596 93.8659 16.2404 93.6456 16.6351C89.041 24.8865 80.3317 30 70.8825 30L64 30L64 2L70.8825 2Z" fill="#D1D2DE"/>
<circle cx="80" cy="16" r="6" transform="rotate(90 80 16)" fill="black" fill-opacity="0.1"/>
<g clip-path="url(#clip0_225_56867)">
<path d="M64 2L64 30L32 30L32 2L64 2Z" fill="#D1D2DE"/>
<circle cx="48" cy="16" r="6" transform="rotate(90 48 16)" fill="black" fill-opacity="0.1"/>
</g>
<g clip-path="url(#clip1_225_56867)">
<path d="M32 2L32 30L15 30C7.26801 30 0.999999 23.732 0.999999 16C1 8.26801 7.26801 2 15 2L32 2Z" fill="#D1D2DE"/>
<circle cx="16" cy="16" r="6" transform="rotate(90 16 16)" fill="black" fill-opacity="0.1"/>
</g>
<defs>
<clipPath id="clip0_225_56867">
<rect width="32" height="32" fill="white" transform="translate(64) rotate(90)"/>
</clipPath>
<clipPath id="clip1_225_56867">
<rect width="32" height="32" fill="white" transform="translate(32) rotate(90)"/>
</clipPath>
</defs>
</svg>
