<svg width="32" height="96" viewBox="0 0 32 96" fill="none" xmlns="http://www.w3.org/2000/svg">
<g clip-path="url(#clip0_1_58)">
<path d="M2 25.1175C2 15.6683 7.1135 6.95898 15.3649 2.35443C15.7596 2.13413 16.2404 2.13413 16.6351 2.35443C24.8865 6.95898 30 15.6683 30 25.1175V32H2V25.1175Z" fill="#D1D2DE"/>
<circle cx="16" cy="16" r="6" fill="black" fill-opacity="0.1"/>
</g>
<g clip-path="url(#clip1_1_58)">
<path d="M2 32H30V64H2V32Z" fill="#D1D2DE"/>
<circle cx="16" cy="48" r="6" fill="black" fill-opacity="0.1"/>
</g>
<g clip-path="url(#clip2_1_58)">
<path d="M2 64H30V81C30 88.732 23.732 95 16 95C8.26801 95 2 88.732 2 81V64Z" fill="#D1D2DE"/>
<circle cx="16" cy="80" r="6" fill="black" fill-opacity="0.1"/>
</g>
<defs>
<clipPath id="clip0_1_58">
<rect width="32" height="32" fill="white"/>
</clipPath>
<clipPath id="clip1_1_58">
<rect width="32" height="32" fill="white" transform="translate(0 32)"/>
</clipPath>
<clipPath id="clip2_1_58">
<rect width="32" height="32" fill="white" transform="translate(0 64)"/>
</clipPath>
</defs>
</svg>
