<svg width="128" height="32" viewBox="0 0 128 32" fill="none" xmlns="http://www.w3.org/2000/svg">
<path d="M102.883 2C112.332 2 121.041 7.1135 125.646 15.3649C125.866 15.7596 125.866 16.2404 125.646 16.6351C121.041 24.8865 112.332 30 102.883 30L96 30L96 2L102.883 2Z" fill="#D1D2DE"/>
<circle cx="112" cy="16" r="6" transform="rotate(90 112 16)" fill="black" fill-opacity="0.1"/>
<g clip-path="url(#clip0_225_56869)">
<path d="M96 2L96 30L64 30L64 2L96 2Z" fill="#D1D2DE"/>
<circle cx="80" cy="16" r="6" transform="rotate(90 80 16)" fill="black" fill-opacity="0.1"/>
</g>
<g clip-path="url(#clip1_225_56869)">
<path d="M64 2L64 30L32 30L32 1.99999L64 2Z" fill="#D1D2DE"/>
<circle cx="48" cy="16" r="6" transform="rotate(90 48 16)" fill="black" fill-opacity="0.1"/>
</g>
<g clip-path="url(#clip2_225_56869)">
<path d="M32 2L32 30L15 30C7.26801 30 0.999999 23.732 0.999999 16C1 8.26801 7.26801 2 15 2L32 2Z" fill="#D1D2DE"/>
<circle cx="16" cy="16" r="6" transform="rotate(90 16 16)" fill="black" fill-opacity="0.1"/>
</g>
<defs>
<clipPath id="clip0_225_56869">
<rect width="32" height="32" fill="white" transform="translate(96) rotate(90)"/>
</clipPath>
<clipPath id="clip1_225_56869">
<rect width="32" height="32" fill="white" transform="translate(64 -3.8147e-06) rotate(90)"/>
</clipPath>
<clipPath id="clip2_225_56869">
<rect width="32" height="32" fill="white" transform="translate(32 -3.8147e-06) rotate(90)"/>
</clipPath>
</defs>
</svg>
