<svg width="96" height="32" viewBox="0 0 96 32" fill="none" xmlns="http://www.w3.org/2000/svg">
<g clip-path="url(#clip0_424_2054)">
<path d="M82 2C89.732 2 96 8.26801 96 16C96 23.732 89.732 30 82 30L64 30L64 2L82 2Z" fill="#D1D2DE"/>
<circle cx="80" cy="16" r="6" transform="rotate(90 80 16)" fill="black" fill-opacity="0.1"/>
</g>
<g clip-path="url(#clip1_424_2054)">
<path d="M64 2L64 30L32 30L32 2L64 2Z" fill="#D1D2DE"/>
<circle cx="48" cy="16" r="6" transform="rotate(90 48 16)" fill="black" fill-opacity="0.1"/>
</g>
<g clip-path="url(#clip2_424_2054)">
<path d="M32 2L32 30L15 30C7.26801 30 0.999999 23.732 0.999999 16C1 8.26801 7.26801 2 15 2L32 2Z" fill="#D1D2DE"/>
<circle cx="16" cy="16" r="6" transform="rotate(90 16 16)" fill="black" fill-opacity="0.1"/>
</g>
<defs>
<clipPath id="clip0_424_2054">
<rect width="32" height="32" fill="white" transform="translate(96) rotate(90)"/>
</clipPath>
<clipPath id="clip1_424_2054">
<rect width="32" height="32" fill="white" transform="translate(64) rotate(90)"/>
</clipPath>
<clipPath id="clip2_424_2054">
<rect width="32" height="32" fill="white" transform="translate(32) rotate(90)"/>
</clipPath>
</defs>
</svg>
